<svg width="1656" height="1831" viewBox="0 0 1656 1831" fill="none" xmlns="http://www.w3.org/2000/svg">
<path fill-rule="evenodd" clip-rule="evenodd" d="M1579.5 752C1579.5 1166.77 1243.27 1503 828.5 1503C413.734 1503 77.5 1166.77 77.5 752C77.5 337.234 413.734 1 828.5 1C1243.27 1 1579.5 337.234 1579.5 752ZM615.688 1050.86H469.94C439.314 1050.86 424.186 1050.86 414.962 1044.96C404.999 1038.5 398.911 1027.8 398.173 1015.99C397.619 1005.11 405.184 991.822 420.312 965.255L780.182 330.935C795.495 303.999 803.243 290.531 813.021 285.55C823.537 280.2 836.083 280.2 846.599 285.55C856.377 290.531 864.126 303.999 879.438 330.935L953.42 460.079L953.797 460.738C970.336 489.635 978.723 504.289 982.385 519.669C986.443 536.458 986.443 554.169 982.385 570.958C978.695 586.455 970.393 601.215 953.604 630.549L764.573 964.702L764.084 965.558C747.436 994.693 738.999 1009.46 727.306 1020.6C714.576 1032.78 699.263 1041.63 682.474 1046.62C667.161 1050.86 650.004 1050.86 615.688 1050.86ZM983.75 1050.86H1192.59C1223.4 1050.86 1238.9 1050.86 1248.13 1044.78C1258.09 1038.32 1264.36 1027.43 1264.92 1015.63C1265.45 1005.1 1258.05 992.33 1243.55 967.307C1243.05 966.455 1242.55 965.588 1242.04 964.706L1137.43 785.75L1136.24 783.735C1121.54 758.877 1114.12 746.324 1104.59 741.472C1094.08 736.121 1081.71 736.121 1071.2 741.472C1061.61 746.453 1053.86 759.552 1038.54 785.934L934.306 964.891L933.949 965.507C918.69 991.847 911.064 1005.01 911.614 1015.81C912.352 1027.62 918.44 1038.5 928.402 1044.96C937.443 1050.86 952.94 1050.86 983.75 1050.86Z" fill="white"/>
<path d="M67.8434 1672.44H91.499L157.691 1826.09H126.44L112.116 1790.93H45.4899L31.6004 1826.09H1L67.8434 1672.44ZM102.567 1767.5L78.9116 1704.99L54.822 1767.5H102.567Z" fill="white"/>
<path d="M187.024 1672.44H218.492L260.378 1788.55L303.565 1672.44H333.081L271.012 1826.09H247.356L187.024 1672.44Z" fill="white"/>
<path d="M430.808 1672.44H454.463L520.656 1826.09H489.404L475.081 1790.93H408.454L394.565 1826.09H363.964L430.808 1672.44ZM465.532 1767.5L441.876 1704.99L417.786 1767.5H465.532Z" fill="white"/>
<path d="M581.136 1672.44H608.481V1801.35H673.805V1826.09H581.136V1672.44Z" fill="white"/>
<path d="M786.778 1672.44H810.434L876.626 1826.09H845.374L831.051 1790.93H764.424L750.535 1826.09H719.935L786.778 1672.44ZM821.502 1767.5L797.846 1704.99L773.757 1767.5H821.502Z" fill="white"/>
<path d="M937.106 1672.44H973.349L1047.79 1786.59H1048.22V1672.44H1075.57V1826.09H1040.84L964.885 1708.25H964.451V1826.09H937.106V1672.44Z" fill="white"/>
<path d="M1258.71 1708.47C1253.07 1702.39 1247.57 1698.34 1242.22 1696.31C1237.01 1694.29 1231.73 1693.27 1226.38 1693.27C1218.42 1693.27 1211.19 1694.72 1204.67 1697.61C1198.31 1700.36 1192.81 1704.27 1188.18 1709.33C1183.55 1714.25 1179.93 1720.04 1177.33 1726.7C1174.87 1733.35 1173.64 1740.51 1173.64 1748.18C1173.64 1756.43 1174.87 1764.02 1177.33 1770.97C1179.93 1777.91 1183.55 1783.92 1188.18 1788.98C1192.81 1794.05 1198.31 1798.02 1204.67 1800.92C1211.19 1803.81 1218.42 1805.26 1226.38 1805.26C1232.6 1805.26 1238.6 1803.81 1244.39 1800.92C1250.32 1797.88 1255.82 1793.11 1260.88 1786.59L1283.45 1802.65C1276.51 1812.2 1268.05 1819.15 1258.06 1823.49C1248.08 1827.83 1237.45 1830 1226.16 1830C1214.3 1830 1203.37 1828.12 1193.39 1824.36C1183.55 1820.45 1175.01 1815.02 1167.78 1808.08C1160.69 1800.99 1155.12 1792.53 1151.07 1782.69C1147.02 1772.85 1144.99 1761.93 1144.99 1749.92C1144.99 1737.62 1147.02 1726.48 1151.07 1716.5C1155.12 1706.37 1160.69 1697.76 1167.78 1690.67C1175.01 1683.58 1183.55 1678.15 1193.39 1674.39C1203.37 1670.49 1214.3 1668.53 1226.16 1668.53C1236.58 1668.53 1246.2 1670.41 1255.02 1674.18C1263.99 1677.79 1272.31 1684.01 1279.98 1692.84L1258.71 1708.47Z" fill="white"/>
<path d="M1345.21 1672.44H1372.56V1733.64H1444.39V1672.44H1471.74V1826.09H1444.39V1758.38H1372.56V1826.09H1345.21V1672.44Z" fill="white"/>
<path d="M1549.48 1672.44H1651.26V1697.18H1576.82V1734.94H1647.36V1759.68H1576.82V1801.35H1655.17V1826.09H1549.48V1672.44Z" fill="white"/>
</svg>
